<svg x="0px" y="0px" viewBox="0 0 1000 1000">
    <path d="M906.3,129.5l-71.7-71.7L785.3,10h-357c-39.6,0-71.7,32.1-71.7,71.7v47.8h47.8v-23.9c0-26.4,21.4-47.8,47.8-47.8h262.9v167.3h167.3v502c0,26.4-21.4,47.8-47.8,47.8H691.2v47.8h167.3c39.6,0,71.7-32.1,71.7-71.7V154.2L906.3,129.5z M762.9,177.3V57.8l119.5,119.5H762.9z M547.8,225.1l-49.3-47.8h-357c-39.6,0-71.7,32.1-71.7,71.7v669.3c0,39.6,32.1,71.7,71.7,71.7h430.2c39.6,0,71.7-32.1,71.7-71.7V321.5l-23.9-24.6L547.8,225.1z M595.6,894.4c0,26.4-21.4,47.8-47.8,47.8H165.4c-26.4,0-47.8-21.4-47.8-47.8V272.9c0-26.4,21.4-47.8,47.8-47.8h262.9v167.3h167.3V894.4z M476.1,344.6V225.1l119.5,119.5H476.1z"/>
</svg>