<svg xmlns="http://www.w3.org/2000/svg" viewBox="0 0 32 32">
    <path d="M22.22 9.42a1.12 1.12 0 0 0-1.55.36l-3.94 6.31a3.42 3.42 0 1 0 1.9 1.2L22.58 11a1.12 1.12 0 0 0-.36-1.58z"></path>
    <circle cx="16" cy="9.25" r="1.13"></circle>
    <circle cx="24.55" cy="16" r="1.13"></circle>
    <circle cx="23.88" cy="21.63" r="1.13"></circle>
    <circle cx="10.38" cy="11.5" r="1.13"></circle>
    <circle cx="7.34" cy="16" r="1.13"></circle>
    <circle cx="8.13" cy="21.63" r="1.13"></circle>
    <path d="M28.38 18.25A12.38 12.38 0 1 0 8.9 28.38h14.2a12.35 12.35 0 0 0 5.28-10.13z" fill="none"></path>
    <path d="M16 3.63A14.61 14.61 0 0 0 5.45 28.36h21.09A14.61 14.61 0 0 0 16 3.63zm9.52 22.5h-19a12.37 12.37 0 1 1 21.89-7.87 12.28 12.28 0 0 1-2.89 7.87z"></path>
</svg>
