<svg x="0px" y="0px" viewBox="0 0 1000 1000">
    <g transform="translate(0.000000,511.000000) scale(0.100000,-0.100000)">
        <path d="M4887.5,4981.7c-32.6-16.3-1117.9-1087.3-2411.2-2382.7C-81.9,38.8,65,200,124.2,24.6c30.6-95.9,4675.6-4740.9,4781.6-4783.7c173.4-67.3,4.1-222.3,2588.7,2360.2C9199.9-693.5,9860.9-20.3,9877.2,28.6C9934.3,198,10075.1,45,7523.1,2601c-1379,1379-2376.6,2364.3-2415.3,2380.6C5026.2,5016.3,4967,5016.3,4887.5,4981.7z M5162.9,2878.5c91.8-46.9,206-193.8,287.6-365.1c132.6-285.6,197.9-607.9,216.3-1062.8c14.3-350.9-8.2-587.5-95.9-1007.7c-106.1-514.1-410-1538.1-481.4-1617.7c-42.8-44.9-124.4-46.9-175.4-2c-100,89.8-477.3,1450.4-556.9,2013.4c-81.6,577.3,2,1277,204,1695.2C4726.3,2872.3,4938.5,2994.7,5162.9,2878.5z M5258.7-1570.7c556.9-269.3,359-1115.8-261.1-1117.9c-491.6-2.1-773.1,591.6-454.9,962.8C4728.4-1507.5,5003.8-1448.3,5258.7-1570.7z"/>
    </g>
</svg>