<svg x="0px" y="0px" viewBox="0 0 1000 1000">
    <g transform="translate(0.000000,119.000000) scale(0.100000,-0.100000)">
        <path d="M2200,1035.2c-253.7-96.2-603.7-490-656.2-735c-61.3-253.7-61.3-253.7-752.5-253.7H100v-4375v-4375h4900h4900v4375v4375h-691.3c-691.2,0-691.2,0-752.5,253.7c-26.2,131.3-175,358.8-315,498.8c-218.8,210-341.3,253.7-691.3,253.7c-350,0-472.5-43.8-691.3-253.7c-140-140-288.7-367.5-315-498.8l-61.3-253.7H5000H3617.5l-61.3,253.7C3442.5,816.5,2681.2,1227.7,2200,1035.2z M2803.7,274c166.2-192.5,87.5-1102.5-96.3-1225c-288.7-175-463.7,35-490,595c-26.3,533.8,70,752.5,332.5,752.5C2637.5,396.5,2751.2,344,2803.7,274z M7703.8,274c166.2-192.5,87.5-1102.5-96.3-1225c-288.7-175-463.7,35-490,595c-26.2,533.8,70,752.5,332.5,752.5C7537.5,396.5,7651.2,344,7703.8,274z M1543.7-907.3c26.2-131.3,175-358.8,315-498.8c218.7-210,341.2-253.7,691.2-253.7s472.5,43.8,691.2,253.7c140,140,288.8,367.5,315,498.8l61.3,253.7H5000h1382.5l61.3-253.7c26.2-131.3,175-358.8,315-498.8c218.8-210,341.3-253.7,691.3-253.7c350,0,472.5,43.8,691.3,253.7c140,140,288.7,367.5,315,498.8c52.5,227.5,96.2,253.7,402.5,253.7H9200v-875v-875H5000H800v875v875h341.2C1447.5-653.5,1491.2-679.7,1543.7-907.3z M9200-5553.5v-2450H5000H800v2450v2450h4200h4200V-5553.5z"/><path d="M5472.5-5028.5c-621.3-673.8-1146.3-1225-1172.5-1225s-236.3,236.3-472.5,533.7l-428.7,525l-245-236.3l-245-236.2l253.7-315c131.3-175,446.3-533.7,691.2-796.2l446.3-481.3L5350-6166c586.3,603.7,1207.5,1277.5,1400,1496.2l341.3,402.5l-245.1,236.2l-245,236.3L5472.5-5028.5z"/>
    </g>
</svg>