<svg x="0px" y="0px" viewBox="0 0 1000 1000">
    <g transform="translate(0.000000,437.000000) scale(0.100000,-0.100000)">
        <path d="M4691.5,4254c-49.5-11.3-162.1-47.3-247.7-81.1c-821.9-326.5-1184.4-1288-783.6-2080.6c72.1-144.1,249.9-373.8,342.3-443.6c92.3-72,85.6-76.6-162.1-130.6c-259-56.3-970.5-295-1092.1-364.8c-162.1-94.6-319.8-270.2-412.1-457.1c-45-92.3-272.5-704.8-502.1-1362.3l-421.1-1193.4l-2.3-247.7c-2.3-220.7,4.5-258.9,54-360.3c69.8-144.1,211.7-283.7,364.8-364.8c209.4-110.3,490.9-83.3,939,94.6c137.4,51.8,141.9,54,101.3,9c-54-60.8-562.9-398.6-1062.8-707.1c-677.8-416.6-860.2-650.8-860.2-1094.4c0-475.1,299.5-803.9,866.9-957c150.9-40.5,286-42.8,3039.9-42.8c2686.4,0,2898,2.2,3114.2,40.5c443.6,78.8,700.3,193.7,889.5,398.6c144.1,155.4,195.9,292.7,195.9,506.7c0,342.3-128.4,603.5-409.8,830.9c-65.3,54-346.8,238.7-626,409.8c-461.6,283.7-961.5,630.5-939,653c4.5,4.5,72.1-15.8,153.1-47.3c288.2-114.8,454.9-155.4,639.5-155.4c155.4-2.3,195.9,6.8,299.5,60.8c153.1,81.1,295,220.7,364.8,364.8c49.5,101.3,56.3,139.6,54.1,360.3l-2.3,247.7L8166-666.2C7934.1-8.6,7711.2,599.4,7668.3,684.9c-153.1,319.8-331,459.4-767.8,605.7c-261.2,87.8-614.8,193.7-885,261.2l-99.1,27l103.6,92.3c486.4,443.6,621.5,1161.9,331,1760.9c-184.7,380.5-470.6,628.2-900.7,781.4C5310.7,4265.2,4853.6,4287.8,4691.5,4254z M5207.2,3801.4c313-65.3,585.5-279.2,731.8-578.7c85.6-168.9,85.6-173.4,85.6-441.3s-2.2-274.7-83.3-448.1c-380.5-797.1-1501.9-797.1-1882.5,0c-81.1,173.4-83.3,180.1-83.3,448.1s0,272.5,85.6,441.3C4277.2,3664,4743.3,3898.2,5207.2,3801.4z M5355.8,1189.3c418.8-45,693.5-108.1,1308.3-306.2c367-117.1,470.6-182.4,569.7-358c83.3-148.6,894-2463.4,912-2600.8c15.8-126.1-36-247.7-132.9-317.5c-117.1-81.1-245.4-51.8-1020.1,236.4c-700.3,258.9-1252,454.9-1610,572c-265.7,85.6-499.9,85.6-765.6,0c-358-117.1-909.7-313-1610-572c-774.6-288.2-903-317.5-1020-236.4c-99.1,72.1-148.6,191.4-130.6,322c18,135.1,824.2,2436.4,907.5,2589.5c112.6,209.4,191.4,252.2,779.1,434.6C4247.9,1171.3,4826.6,1247.9,5355.8,1189.3z M5619.2-2154.6c272.5-92.3,572-195.9,664.3-229.7c162.1-60.8,168.9-65.3,189.2-150.9c38.3-182.4,112.6-313,274.7-472.9c202.7-202.7,394.1-337.8,1038.1-736.3c288.2-175.6,565.2-360.3,614.7-409.8c132.9-123.8,186.9-245.4,189.2-412.1c2.2-123.9-4.5-146.4-65.3-209.4c-171.1-180.2-472.9-259-1125.9-295c-277-15.8-1049.3-22.5-2015.3-15.8c-1558.2,9-1565,9-1659.6,58.5c-114.8,58.6-180.1,139.6-211.7,259c-49.5,189.2,11.3,310.8,207.2,409.8c243.2,123.8,477.4,177.9,1652.8,371.5c941.3,155.4,988.6,166.6,1047.1,243.2c85.6,105.8,49.5,263.5-74.3,331l-78.8,42.8l-729.6-119.3c-1308.3-211.7-1686.6-295-1974.8-432.3c-358-173.4-520.2-396.3-520.2-720.6c0-150.9,24.8-279.2,78.8-409.8c15.8-36-11.3-38.3-385.1-38.3c-664.3,0-923.2,45-1137.1,193.6c-137.4,94.6-189.1,195.9-186.9,369.3c0,87.8,15.8,173.4,36,213.9c63.1,121.6,245.4,265.7,614.7,493.1c1110.1,684.5,1389.3,921,1454.6,1231.7c13.5,67.6,31.5,128.3,40.5,137.4c22.5,24.8,1080.8,394.1,1272.3,443.6c87.8,24.8,191.4,38.3,227.4,31.5C5094.6-1983.5,5346.8-2062.3,5619.2-2154.6z"/><path d="M4876.2,784c-209.4-60.8-340-290.5-484.1-853.4c-51.8-204.9-103.6-391.8-112.6-416.6c-13.5-33.8-162.1-101.3-587.7-268c-315.2-121.6-594.5-238.7-623.7-256.7c-182.4-119.3-112.6-409.8,99.1-409.8c87.8,0,1324,468.4,1429.9,542.7c76.6,54,85.6,81.1,220.7,608c112.6,443.6,153.1,560.7,184.7,560.7c29.3,0,83.3-171.1,200.4-630.5c60.8-240.9,130.6-463.9,153.1-495.4c31.5-42.8,202.7-119.3,693.5-313c358-141.9,686.8-261.2,729.6-265.7c42.8-6.7,105.8,0,137.3,11.3c69.8,27,141.9,166.6,123.9,240.9c-31.5,123.8-103.6,164.4-711.6,400.8l-596.7,234.2l-24.8,87.8c-15.8,47.3-65.3,234.2-110.3,414.3c-137.4,531.4-268,752.1-484.1,810.6C5020.3,813.3,4968.5,811,4876.2,784z"/>
    </g>
</svg>