<svg x="0px" y="0px" viewBox="0 0 1000 1000">
    <g transform="translate(0.000000,511.000000) scale(0.100000,-0.100000)">
        <path d="M4631.3,3513.3c-397.8-319.7-870.2-927-1044.2-1342.6c-32-85.2-67.5-149.2-78.1-142.1c-333.9,198.9-1005.1,429.8-1381.6,472.4c-202.5,21.3-216.7,17.8-316.1-81.7c-74.6-71-138.5-209.5-213.1-440.4c-145.6-447.5-198.9-880.8-174-1353.2l21.3-380l-166.9-21.3C795.4,164,287.5,4.2,159.7-123.7C14-269.3,145.4-929.9,440.2-1498.2c475.9-927,1363.9-1626.7,2422.3-1907.3c301.9-81.7,415.6-92.3,895-92.3c504.4-3.5,575.4,7.1,870.2,99.4c177.6,53.3,344.5,99.4,372.9,99.4c28.4,0,198.9-46.2,372.9-99.4c294.8-92.3,365.8-103,870.2-99.4c479.5,0,593.1,10.7,895,92.3c838.2,223.8,1594.7,724.6,2088.4,1381.7c383.6,507.9,621.6,1072.6,664.2,1577c17.8,223.8,10.7,262.8-49.7,323.2C9713.9,4.2,9206,164,8730.1,224.4l-159.8,17.8l-3.5,596.7c0,486.6-14.2,642.9-78.1,863.1c-113.7,419.1-227.3,674.8-333.9,752.9c-92.3,67.5-113.7,71-387.1,28.4c-326.8-49.7-809.8-209.6-1093.9-362.3c-106.6-56.8-195.4-99.4-195.4-92.4c-213.1,525.7-667.8,1129.5-1108.2,1484.7C5022,3786.8,4979.4,3786.8,4631.3,3513.3z M5292,2838.5c372.9-390.7,614.5-799.1,792-1321.3c188.2-547,255.7-1342.6,163.4-1914.4c-127.9-795.6-468.8-1484.6-994.5-2003.2l-248.6-245.1l-135,117.2c-1030,895-1431.4,2567.9-962.5,4013.5c88.8,277,305.4,724.6,458.2,948.3c170.5,245.1,564.7,650,635.8,650C5036.2,3083.6,5167.6,2973.5,5292,2838.5z M2475.4,1876c269.9-78.1,756.5-294.8,816.9-369.4c24.9-28.4,17.8-106.6-14.2-238c-71-270-124.3-742.3-124.3-1083.3v-291.3L2894.5-6.5c-142.1,56.8-394.2,131.4-564.7,163.4l-309,63.9l-28.4,163.4c-42.6,252.2-21.3,884.4,35.5,1136.6c67.5,280.6,120.8,426.2,156.3,426.2C2201.9,1947,2333.3,1915,2475.4,1876z M7920.3,1723.2c88.8-294.8,142.1-784.9,117.2-1072.6c-39.1-454.6-14.2-419.1-365.8-493.7c-170.5-32-422.7-106.6-561.2-159.8l-252.2-99.5L6837,380.7c-14.2,269.9-56.8,625.1-95.9,799.1c-39.1,177.6-71,323.2-71,323.2c0,3.6,131.4,71,294.8,152.7c284.1,142.1,738.8,294.8,841.8,280.6C7835,1932.8,7884.7,1840.4,7920.3,1723.2z M1942.6-326.1c465.3-60.4,1218.3-330.3,1303.5-468.8c14.2-24.8,81.7-198.9,142.1-390.7c198.9-586,486.6-1086.8,856-1484.6c103-113.7,177.6-216.6,159.8-227.3c-14.2-7.1-166.9-35.5-333.9-56.8c-600.2-81.7-1356.8,92.4-1957,447.5c-390.7,234.4-880.8,721-1104.6,1097.5C838-1114.6,646.2-578.3,678.2-489.5c24.9,67.5,490.2,166.9,877.3,191.8C1605.2-294.2,1779.2-308.4,1942.6-326.1z M9060.4-386.5c135-28.4,252.2-74.6,262.8-103c31.9-88.8-159.8-628.7-330.3-919.9c-220.2-372.9-713.9-863.1-1108.2-1097.5c-596.7-355.2-1353.2-529.2-1953.5-447.5c-166.9,21.3-319.7,49.7-333.9,56.8c-17.8,10.7,56.9,113.6,159.8,227.3c369.4,397.8,657.1,898.6,856,1484.6c60.4,191.8,127.9,365.9,142.1,390.7c35.5,60.4,376.5,227.3,642.9,319.7c195.4,64,468.8,124.3,745.9,163.4C8318.1-287.1,8801.1-326.1,9060.4-386.5z"/>
    </g>
</svg>