<svg x="0px" y="0px" viewBox="0 0 1000 1000">
    <g>
        <path d="M504,32.9l-1.2-0.6C505.3,35.1,505.3,33.8,504,32.9z"/>
        <path d="M298.8,678h104V574.1h-104V678z M971,431.7L534.6,61.3c-20-16.9-49.2-16.9-69.2,0L28.9,431.7c-22.6,19.2-25.4,53.1-6.2,75.6c19.1,22.7,52.8,25.5,75.5,6.3l7-5.9v426.5c0,18.6,14.9,33.5,33.5,33.5h722.8c18.5,0,33.5-15,33.5-33.5V507.6l7,5.9c10,8.5,22.4,12.7,34.6,12.7c15.2,0,30.3-6.4,40.9-19.1C996.4,484.6,993.6,450.7,971,431.7L971,431.7z M827.9,900.6H701.1V574.1H516.9v326.4H172V450.8L500,172.6l327.9,278.2L827.9,900.6L827.9,900.6z"/>
    </g>
</svg>