<?xml version="1.0" encoding="utf-8"?>
<!-- Svg Vector Icons : http://www.onlinewebfonts.com/icon -->
<!DOCTYPE svg PUBLIC "-//W3C//DTD SVG 1.1//EN" "http://www.w3.org/Graphics/SVG/1.1/DTD/svg11.dtd">
<svg version="1.1" xmlns="http://www.w3.org/2000/svg" xmlns:xlink="http://www.w3.org/1999/xlink" x="0px" y="0px" viewBox="0 0 1000 1000" enable-background="new 0 0 1000 1000" xml:space="preserve">
<metadata> Svg Vector Icons : http://www.onlinewebfonts.com/icon </metadata>
<g><g transform="translate(0.000000,512.000000) scale(0.100000,-0.100000)"><path d="M4663.8,5009c-1506.2-109.4-2849.3-876.9-3707-2118.3C-102.3,1361.5-186.8-716.5,743.8-2320.6c782.8-1347,2099.1-2223.8,3643.7-2429.1c324.3-42.2,911.4-42.2,1228,0c1118.6,149.7,2060.7,614,2849.3,1402.6C9406.9-2405,9900-1215.4,9900,116.2c0,1299-475.8,2477.1-1377.6,3413.4C7530.4,4560,6087.5,5112.6,4663.8,5009z M5511.9,4193.5c771.3-101.7,1456.3-391.4,2060.7-873c186.1-147.7,543-510.4,673.5-681.2c842.3-1103.3,1084.1-2505.9,656.2-3808.7c-205.3-627.4-552.6-1181.9-1036.1-1650.1c-345.4-337.7-652.4-554.5-1070.7-759.8c-1128.2-548.8-2463.6-548.8-3586.1,0C2787.3-3374,2486-3161,2144.5-2829c-364.6,353.1-621.7,708-838.5,1151.2C613.3-259.9,801.4,1428.6,1791.5,2681.6c138.1,174.6,460.5,498.9,638.9,640.9c591,473.9,1362.3,794.3,2110.6,878.8C4784.7,4228.1,5272,4224.2,5511.9,4193.5z"/><path d="M4848,3201.5c-138.2-71-161.2-132.4-172.7-447.1l-9.6-266.7l-143.9-49.9c-230.2-78.7-395.3-180.4-566-353C3508.7,1633.9,3445.4,995,3794.6,471.2C4011.4,146.9,4353-60.3,4896-200.4c331.9-84.4,514.2-166.9,654.3-301.3c159.2-149.7,209.1-257.1,209.1-447.1c0-132.4-7.7-168.8-55.6-264.8c-149.7-291.7-458.6-437.5-846.2-395.2c-193.8,19.2-278.2,44.1-420.2,118.9c-161.2,84.4-268.6,199.6-351.1,370.3c-88.3,182.3-170.8,245.6-320.4,245.6c-119,0-203.4-42.2-274.4-136.2c-201.5-262.9,165-844.2,690.7-1097.5c138.2-67.2,228.3-95.9,439.4-143.9l51.8-11.5l5.8-274.4c5.8-251.4,9.6-278.2,51.8-337.7c53.7-74.8,174.6-134.3,272.5-136.2c99.8,0,230.2,74.8,280.1,165c38.4,67.2,44.1,101.7,44.1,335.8v260.9l120.9,32.6c214.9,59.5,408.7,178.4,591,356.9c142,140.1,178.5,191.9,253.3,345.4c130.5,276.3,166.9,502.7,120.9,757.9c-36.4,207.2-92.1,349.2-205.3,518.1c-220.7,330-558.4,535.3-1103.3,671.6c-320.4,80.6-502.7,165-646.6,297.4c-161.2,147.8-214.9,259-214.9,450.9c0,128.6,7.7,170.8,53.7,260.9c63.3,132.4,209.2,272.5,347.3,335.8c128.6,57.6,347.3,86.3,510.4,67.1c381.8-49.9,625.5-207.2,761.7-495c84.4-178.4,170.8-243.7,320.4-243.7c118.9,0,203.4,42.2,274.4,136.2c78.7,101.7,76.8,257.1-5.8,427.9c-182.3,381.8-560.3,675.4-1009.3,788.6l-168.8,40.3v253.3c0,299.3-28.8,372.2-170.8,447.1C5049.5,3255.3,4957.4,3255.3,4848,3201.5z"/></g></g>
</svg>