<?xml version="1.0" encoding="utf-8"?>
<!-- Svg Vector Icons : http://www.onlinewebfonts.com/icon -->
<!DOCTYPE svg PUBLIC "-//W3C//DTD SVG 1.1//EN" "http://www.w3.org/Graphics/SVG/1.1/DTD/svg11.dtd">
<svg version="1.1" xmlns="http://www.w3.org/2000/svg" xmlns:xlink="http://www.w3.org/1999/xlink" x="0px" y="0px" viewBox="0 0 1000 1000" enable-background="new 0 0 1000 1000" xml:space="preserve">
<metadata> Svg Vector Icons : http://www.onlinewebfonts.com/icon </metadata>
<g><g><g><g><path d="M500,10C229.9,10,10,229.8,10,500C10,770.1,229.9,990,500,990c270.2,0,490-219.8,490-489.9C990,229.8,770.2,10,500,10z M500,942.7C255.9,942.7,57.2,744.2,57.2,500S255.9,57.2,500,57.2c244.1,0,442.8,198.7,442.8,442.8C942.8,744.2,744.1,942.7,500,942.7z"/></g><g><path d="M523.5,465.7c-65-27.6-87.8-47-87.8-85c0-30.5,16.8-64.9,74.3-64.9c47.8,0,78.3,17.2,94,26.1l18.6-49.2c-22.4-12.7-52.9-24.7-96.9-26v-72.5h-47v74.6c-67.9,11.3-111.9,58.2-111.9,120.1c0,64.9,47,99.9,123,129.8c55.3,22.4,79.6,47.8,79.5,88.8c0.1,42.6-31,73.1-83.9,73.1c-41.8,0-80.7-14.9-106.7-32l-17.9,49.9c26,18.6,70.1,32.1,113.3,32.9v74.5h47v-77.6c76.8-11.9,117.9-67.2,117.9-126.8C639.1,535.2,600.3,497.1,523.5,465.7z"/></g></g></g><g></g><g></g><g></g><g></g><g></g><g></g><g></g><g></g><g></g><g></g><g></g><g></g><g></g><g></g><g></g></g>
</svg>