<?xml version="1.0" encoding="UTF-8" standalone="no"?>
<svg
   xmlns:dc="http://purl.org/dc/elements/1.1/"
   xmlns:cc="http://creativecommons.org/ns#"
   xmlns:rdf="http://www.w3.org/1999/02/22-rdf-syntax-ns#"
   xmlns:svg="http://www.w3.org/2000/svg"
   xmlns="http://www.w3.org/2000/svg"
   xmlns:xlink="http://www.w3.org/1999/xlink"
   id="svg1204"
   version="1.1"
   viewBox="15.5 0 28 28">
  <metadata
     id="metadata1210">
    <rdf:RDF>
      <cc:Work
         rdf:about="">
        <dc:format>image/svg+xml</dc:format>
        <dc:type
           rdf:resource="http://purl.org/dc/dcmitype/StillImage" />
        <dc:title></dc:title>
      </cc:Work>
    </rdf:RDF>
  </metadata>
  <defs
     id="defs1208" />
  <clipPath
     id="t">
    <path
       id="path1191"
       d="M30,15 h30 v15 z v15 h-30 z h-30 v-15 z v-15 h30 z" />
  </clipPath>
  <g
     transform="translate(-0.1762114,-1.48e-6)"
     id="g2284">
    <path
       style="fill:#00247d"
       d="M 0,0 V 30 H 60 V 0 Z"
       id="path1194" />
    <path
       style="stroke:#ffffff;stroke-width:6"
       d="M 0,0 60,30 M 60,0 0,30"
       id="path1196" />
    <path
       style="stroke:#cf142b;stroke-width:4"
       d="M 0,0 60,30 M 60,0 0,30"
       clip-path="url(#t)"
       id="path1198" />
    <path
       style="stroke:#ffffff;stroke-width:10"
       d="M 30,0 V 30 M 0,15 h 60"
       id="path1200" />
    <path
       style="stroke:#cf142b;stroke-width:6"
       d="M 30,0 V 30 M 0,15 h 60"
       id="path1202" />
  </g>
  <g
     id="layer2" />
  <g
     id="layer3">
    <g
       transform="translate(-0.1762038,-8.0769215)"
       id="g2277">
      <path
         id="rect2115"
         d="m 29.999992,8.0769215 h 57 V 38.076921 h -57 z"
         style="fill:#b22234;stroke-width:0.00769231" />
      <path
         style="stroke:#ffffff;stroke-width:2.30769205"
         d="m 30,11.538455 h 56.999994 m 0,4.615387 H 30 m 0,4.615386 h 56.999994 m 0,4.615387 H 30 M 30,30 h 56.999994 m 0,4.615386 H 30"
         id="path2117" />
      <path
         id="rect2119"
         d="M 29.999992,8.0769215 H 52.799994 V 24.230766 H 29.999992 Z"
         style="fill:#3c3b6e;stroke-width:0.00769231" />
      <g
         style="fill:#ffffff"
         id="g2144"
         transform="matrix(0.00769231,0,0,0.00769231,30,8.0769227)">
        <g
           id="s18">
          <g
             id="s9">
            <g
               id="s5">
              <g
                 id="s4">
                <path
                   id="s"
                   d="M 247,90 317.53423,307.08204 132.87322,172.91796 H 361.12678 L 176.46577,307.08204 Z" />
                <use
                   height="100%"
                   width="100%"
                   x="0"
                   xlink:href="#s"
                   y="420"
                   id="use2122" />
                <use
                   height="100%"
                   width="100%"
                   x="0"
                   xlink:href="#s"
                   y="840"
                   id="use2124" />
                <use
                   height="100%"
                   width="100%"
                   x="0"
                   xlink:href="#s"
                   y="1260"
                   id="use2126" />
              </g>
              <use
                 height="100%"
                 width="100%"
                 x="0"
                 xlink:href="#s"
                 y="1680"
                 id="use2129" />
            </g>
            <use
               height="100%"
               width="100%"
               xlink:href="#s4"
               x="247"
               y="210"
               id="use2132" />
          </g>
          <use
             height="100%"
             width="100%"
             y="0"
             xlink:href="#s9"
             x="494"
             id="use2135" />
        </g>
        <use
           height="100%"
           width="100%"
           y="0"
           xlink:href="#s18"
           x="988"
           id="use2138" />
        <use
           height="100%"
           width="100%"
           y="0"
           xlink:href="#s9"
           x="1976"
           id="use2140" />
        <use
           height="100%"
           width="100%"
           y="0"
           xlink:href="#s5"
           x="2470"
           id="use2142" />
      </g>
    </g>
  </g>
  <path
     id="path1194-3"
     d="m 129.91189,-15.220264 v 30 h 60 v -30 z"
     style="fill:#00247d" />
</svg>
