<svg width="98.458mm" height="99.14mm" version="1.1" viewBox="0 0 98.458 99.14" xmlns="http://www.w3.org/2000/svg">
 <g transform="translate(-46.33 -166)">
  <path d="m94.283 166c-12.243 0.20802-24.654 1.4022-36.351 5.8058-3.8586 1.6455-8.0802 3.4657-10.613 7.4193-1.6269 2.6456-0.69792 6.0559-0.94241 9.0464 0.03519 20.34-0.07056 40.842 0.05293 61.08 0.64602 3.807 3.8499 5.9881 6.6059 7.6459 8.2885 4.4968 17.49 6.108 26.52 7.2496 15.056 1.5904 30.368 1.1741 45.21-2.3106 5.8425-1.5504 11.909-3.2971 16.82-7.4432 2.0336-1.7062 3.5765-4.4781 3.122-7.4245-0.0278-21.742 0.0552-43.497-0.0409-65.231-0.60396-3.8209-3.8115-6.0215-6.5634-7.6828-8.1849-4.4656-17.278-6.081-26.202-7.2365-5.8518-0.68313-11.737-0.96467-17.618-0.91905zm1.2591 3.817c11.852 0.1235 23.804 1.3293 35.203 5.2893 3.1748 1.3155 6.75 2.5404 8.9348 5.699 1.3275 2.0048-0.24423 4.3109-1.7544 5.4077-4.9186 3.6586-10.778 5.0065-16.427 6.3731-17.612 3.6575-35.853 3.5912-53.427-0.34263-5.1967-1.3568-10.614-2.6881-15.099-6.1855-1.4456-1.0896-2.8438-3.3543-1.5694-5.2527 2.1856-3.1607 5.7654-4.3839 8.9404-5.701 11.384-3.9569 23.361-5.1647 35.198-5.2874zm-41.967 21.1c6.4057 4.3569 11.2 4.7526 18.449 6.1772 15.177 2.612 30.698 2.6483 45.893 0.20044 7.4951-1.3827 11.994-1.5028 18.677-5.8427 1.0142-0.8019 0.21373-1.026 0.51362-0.35492-0.0916 4.1756-0.24662 13.587-0.22057 15.901 0.026 2.3141-0.19465 2.2601-3.5785 3.9421s-19.655 5.3311-29.699 6.0769c-13.525 0.7638-27.25-0.24077-40.384-4.0621-3.9598-1.3588-7.2234-3.4406-8.6549-4.872s-1.0571-2.8224-1.0298-5.5684c0.02182-3.3516-0.04398-7.3615 0.03357-10.595zm0 21.75c6.4056 4.3569 11.2 5.0198 18.449 6.4444 15.177 2.612 30.698 2.6483 45.893 0.20044 7.2488-1.3945 10.937-1.6035 19.735-5.8427 1.0142-0.80189-0.80546-1.0123-0.50557-0.34125-0.0916 4.1758-0.0115 12.742-0.25971 15.888-0.24817 3.1455-0.5235 2.3776-3.5785 3.9421s-19.655 5.3311-29.699 6.0769c-13.525 0.7638-27.25-0.24077-40.384-4.0621-3.9598-1.3588-5.5548-1.5493-8.6549-4.872-1.7397-1.8929-0.78985-4.8937-1.0298-7.3056 0.02182-3.3518-0.04398-6.8941 0.03357-10.128zm0 22.018c6.4057 4.3569 11.2 5.0198 18.449 6.4444 15.177 2.612 30.698 2.6483 45.893 0.20044 7.4139-1.4291 12.346-1.9061 19.735-5.8427 1.0142-0.80189-0.89184-1.0733-0.59195-0.40217-0.0916 4.1756 0.1361 13.681-0.17333 15.948s-0.87011 2.7518-3.5785 3.9421-19.655 5.3311-29.699 6.0769c-13.525 0.76381-27.25-0.24075-40.384-4.0621-3.9598-1.3588-5.5548-1.5493-8.6549-4.8721-1.7397-1.8929-0.78985-4.8937-1.0298-7.3056 0.02182-3.3516-0.04398-6.8938 0.03357-10.127z" style="stroke-width:.44216"/>
 </g>
</svg>
