<svg x="0px" y="0px" viewBox="0 0 1000 1000">
    <g>
        <path d="M500,10C229.4,10,10,229.4,10,500c0,270.6,219.4,490,490,490c270.6,0,490-219.4,490-490C990,229.4,770.6,10,500,10z M500,794c-32.9,0-59.6-26.5-59.6-59.2c0-32.7,26.7-59.2,59.6-59.2c32.9,0,59.6,26.5,59.6,59.2C559.6,767.5,532.9,794,500,794z M532.8,601.7c-5.2,16.1-18.1,26.4-32.8,26.4c-14.7,0-28.4-12.5-32.8-26.4c-4.4-13.9-38-231.4-38-323.8c0-23.5,23.6-71.9,70-71.9s71.5,47.7,71.5,71.9C570.8,371,538,585.6,532.8,601.7z"/>
    </g>
</svg>