<svg viewBox="0 0 256 256" width="256" height="256" >
   <path d="m 31.173625,144.09662 c -8.902306,0 -16.09661,-7.19432 -16.09661,-16.09662 0,0 0,0 0,0 0,-8.9023 7.194304,-16.09661 16.09661,-16.09661 0,0 109.622565,0 109.622565,0 8.90231,0 16.09661,7.19431 16.09661,16.09661 0,0 0,0 0,0 0,8.9023 -7.22018,16.09662 -16.09661,16.09662 0,0 -109.622565,0 -109.622565,0 0,0 0,0 0,0" />
   <path d="m 74.068597,45.420769 c 0,-4.244123 1.44921,-8.954062 4.916972,-10.869092 2.717268,-1.449214 5.486306,-2.82079 8.307088,-4.062972 15.035593,-6.65085 31.856793,-10.377396 49.609653,-10.377396 63.99825,0 115.88524,48.315708 115.88524,107.888691 0,59.57299 -51.88699,107.88869 -115.88524,107.88869 -18.32219,0 -35.6351,-3.95946 -51.032987,-10.99849 -2.665515,-1.21629 -5.279268,-2.53611 -7.841269,-3.93357 0,0 0,0 0,0 -4.580552,-2.562 -4.942848,-6.62497 -4.942848,-10.89497 0,-8.38473 7.29782,-15.19086 16.329517,-15.19086 1.475087,0 2.846667,-0.12938 4.270001,0.51758 2.122058,1.19043 4.321756,2.27733 6.547336,3.28661 11.102,4.99461 23.52382,7.78951 36.67025,7.78951 46.55594,0 84.26135,-35.11753 84.26135,-78.4645 0,-43.321103 -37.73128,-78.464503 -84.26135,-78.464503 -12.88764,0 -25.07656,2.691395 -35.9974,7.50485 -2.12206,0.931638 -4.19237,1.94091 -6.210918,3.02782 -1.242182,0.595212 -2.820783,0.543454 -4.295878,0.543454 -9.00582,0 -16.329517,-6.806123 -16.329517,-15.190852 0,0 0,0 0,0" />
   <path d="M66.3308321548 171.726234038C66.3308321548 174.391748919 64.8557413538 176.927872947 62.2937400107 178.170062778C59.7317403786 179.412244055 56.8074360918 178.998177927 54.737132823 177.341930521C54.737132823 177.341930521 10.3550016865 142.431446805 10.3550016865 142.431446805C6.00736465093 139.015437601 3.21245463926 133.710284298 3.21245463926 127.73228316C3.21245463926 121.780167037 6.00736465093 116.475013734 10.3550016865 113.03312807C10.3550016865 113.03312807 54.3230718271 78.4590682715 54.3230718271 78.4590682715C56.4968903449 76.7510679465 59.5247098806 76.3370103722 62.1643474465 77.605068109C64.803984157 78.8990108598 66.3567111809 81.5386492812 66.3567111809 84.281802096C66.3567111809 84.281802096 66.3567111809 171.726234038 66.3567111809 171.726234038C66.3567111809 171.726234038 66.330834721 171.726234038 66.330834721 171.726234038C66.330834721 171.726234038 66.3308321548 171.726234038 66.3308321548 171.726234038" />
</svg>
