<svg width="88.462mm" height="85.921mm" version="1.1" viewBox="0 0 88.462 85.921" xmlns="http://www.w3.org/2000/svg">
 <g transform="translate(-17.582 -82.007)">
  <path transform="matrix(.26458 0 0 .26458 17.582 82.007)" d="m166.5 0.0019531c-30.622 0.06396-52.9 1.8987-52.9 44.225v88.258c-0.49771 4.719 1.9212 4.041 6.3164 4.041h13.971c4.8782-0.00117 4.8197-0.0733 4.7988-5.5566v-85.125c0-19.8 5.1482-25.477 26.045-25.477h19.523 79.367 19.523c20.897 0 26.045 5.6767 26.045 25.477v85.125c-0.0026 0.68542-0.00592 1.2877 0 1.8144v68.684h0.00195v77.43c0 19.8-5.1481 25.477-26.045 25.477h-19.525-98.891c-20.897 0-26.045-5.6767-26.045-25.477v-85.125c0.02083-5.4833 0.07937-5.5555-4.7988-5.5566h-13.971c-4.3952 0-6.8141-0.67998-6.3164 4.0391v88.26c1e-5 45.148 25.347 44.225 59.131 44.225h95.725 6.6914c33.783 0 59.131 0.92107 59.131-44.227v-88.258c0.08435-0.79972 0.07864-1.4339 0-1.9531v-55.867c0.07787-0.51839 0.08407-1.1521 0-1.9492v-88.258c0-45.148-25.349-44.225-59.133-44.225h-6.6895-89.035-6.6894c-2.1115 0-4.189-0.004264-6.2305 0zm-87.1 119.55c-1.99 0.15904-4.0469 1.627-4.0469 1.627l-72.928 38c-1.9653 1.1262-2.3889 2.4671-2.4297 3.5664 0.040743 1.0993 0.46442 2.4403 2.4297 3.5664l72.928 38s8.2271 5.8685 7.6914-4.5977v-21.627l158.77 0.50586v-15.848-15.848l-158.77 0.50586v-21.627c0.26786-5.2331-1.6546-6.3836-3.6445-6.2246z"/>
 </g>
</svg>
