<?xml version="1.0" encoding="utf-8"?>
<!-- Svg Vector Icons : http://www.onlinewebfonts.com/icon -->
<!DOCTYPE svg PUBLIC "-//W3C//DTD SVG 1.1//EN" "http://www.w3.org/Graphics/SVG/1.1/DTD/svg11.dtd">
<svg version="1.1" xmlns="http://www.w3.org/2000/svg" xmlns:xlink="http://www.w3.org/1999/xlink" x="0px" y="0px" viewBox="0 0 1000 1000" enable-background="new 0 0 1000 1000" xml:space="preserve">
<metadata> Svg Vector Icons : http://www.onlinewebfonts.com/icon </metadata>
<g><path d="M745,853.8c-3-143.8-90.7-267-215.8-322.9c57.7-44.4,94.8-113.6,94.8-191.4C624,205.6,514.1,97,378.5,97C243,97,133.1,205.6,133.1,339.5c0,77.6,37,146.8,94.4,191.1C103.2,585.9,15.6,707.5,11.1,849.8c-0.7,3-1.1,6-1.1,9.2l0.4,3.7c0,22.2,18.2,40.2,40.7,40.2c22.5,0,40.7-18,40.7-40.2l0-0.5h0.8c0,0,0-0.1,0-0.1c0-147.7,114.8-268.9,261-281.4c8.2,0.8,16.6,1.2,25,1.2c8.4,0,16.8-0.4,25-1.2C546.8,593,659.9,709.6,664.4,853.3c-0.3,1.9-0.4,3.8-0.4,5.7l0.4,3.7c0,22.2,18.2,40.2,40.7,40.2s40.7-18,40.7-40.2l-0.4-3.7C745.4,857.2,745.2,855.5,745,853.8z M377.8,500.2c-90.2,0-163.3-72.2-163.3-161.3c0-89.1,73.1-161.3,163.3-161.3c90.2,0,163.3,72.2,163.3,161.3C541.1,428,468,500.2,377.8,500.2z M989.6,859c0-1.8-0.1-3.5-0.3-5.2c-3-142.5-89.1-264.7-212.5-321.4c0-1.4-0.1-2.7-0.2-4.1c55.9-44.4,91.6-112.5,91.6-188.9c0-127.8-100.1-232.5-227.1-241.8l-1.9,1.9c-20.6,0.9-37,17.6-37,38.2l0.4,3.6c0,21.1,17.3,38.2,38.7,38.2c6.3,0,12.2-1.5,17.4-4.1c1.5,2.4,2.9,4.9,4.3,7.3c70.4,17.9,122.4,81.1,122.4,156.2c0,60-33.2,112.4-82.5,140.2l-1,1c-16.5,5.6-29.5,18.5-35.1,34.7l-4.1,4.1c0.8,0.7,1.6,1.3,2.4,2c-0.9,3.9-1.3,7.9-1.3,12.1l0.5,5.2c0,30.9,25.3,55.9,56.6,55.9c4.7,0,9.3-0.6,13.7-1.7c3.7,4.7,7.2,9.5,10.7,14.4c94.1,44.1,160,137.5,163.4,246.5c-0.3,1.9-0.4,3.8-0.4,5.8l0.4,3.7c0,22.2,18.2,40.2,40.7,40.2c22.5,0,40.7-18,40.7-40.2L989.6,859z"/></g>
</svg>