<svg xmlns="http://www.w3.org/2000/svg" xmlns:xlink="http://www.w3.org/1999/xlink" x="0px" y="0px" viewBox="0 0 1000 1000" enable-background="new 0 0 1000 1000" xml:space="preserve" fill="#fff">
    <g>
        <path d="M500,10C229.8,10,10,229.8,10,500s219.8,490,490,490s490-219.8,490-490S770.2,10,500,10z M500,958.4C247.2,958.4,41.6,752.8,41.6,500C41.6,247.2,247.2,41.6,500,41.6c252.8,0,458.4,205.6,458.4,458.4C958.4,752.8,752.8,958.4,500,958.4z"/>
        <path d="M515.8,310.3h-31.6v173.9H310.3v31.6h173.9v173.9h31.6V515.8h173.9v-31.6H515.8V310.3z"/>
    </g>
</svg>