<svg width="26.834mm" height="54.313mm" version="1.1" viewBox="0 0 26.834 54.313" xmlns="http://www.w3.org/2000/svg">
 <g transform="translate(-96.787 -133.44)">
  <circle cx="110.11" cy="144.06" r="10.624" style="stroke-width:.26458"/>
  <path transform="matrix(.26458 0 0 .26458 96.787 133.44)" d="m5.4316 87.582c-5.9802 0.07135-7.588 4.3983-1.9453 18.77 3.9214 9.9874 17.738 21.921 23.297 60.029 4.6164 31.645 3.9888 38.706 23.566 38.879 0.0013 7e-3 0.0026 0.0108 0.0039 0.0176 0.1272 0 0.23187-7e-3 0.35742-8e-3 0.12549 5.4e-4 0.2303 8e-3 0.35742 8e-3 0.0013-7e-3 0.0026-0.0108 0.0039-0.0176 19.577-0.17284 18.948-7.2336 23.564-38.879 5.5592-38.108 19.375-50.042 23.297-60.029 13.89-35.375-16.141-9.8887-47.223-9.8887-18.455 0-36.539-8.9851-45.279-8.8809z" style="stroke-width:1.2046"/>
 </g>
</svg>
