<svg x="0px" y="0px" viewBox="0 0 1000 1000">
    <g transform="translate(0.000000,511.000000) scale(0.100000,-0.100000)">
        <path d="M3327.8,5005.2c-133.9-6.5-341.4-34.6-462.3-60.5C1417.9,4635.7,339.8,3482,121.6,2006.4c-30.2-211.7-28.1-1467,2.2-1683C292.3-819.5,983.7-1770.1,2022.9-2292.9c326.2-162,633-259.3,1067.3-332.7l79.9-15.1v-849.1v-849.1l67-134c114.5-229,317.6-339.2,585.5-321.9c250.6,15.1,244.1,10.8,1270.4,1114.8l939.8,1013.3l410.5,13c226.9,6.5,494.8,28.1,598.5,47.5c788.6,144.8,1546.9,574.7,2039.5,1158c386.7,455.9,635.2,959.3,769.1,1557.7c47.5,211.7,49.7,263.6,49.7,1075.9c0,810.2-2.1,864.2-49.7,1080.2c-73.5,328.4-159.9,581.2-306.8,875c-481.8,967.9-1391.4,1642-2462.9,1827.8c-231.2,41-360.8,43.2-1879.6,47.5C4304.3,5018.1,3459.6,5013.8,3327.8,5005.2z M7102.2,4346.2c525-129.6,937.7-352.2,1304.9-700c423.4-401.9,708.6-905.2,838.3-1488.6c47.5-213.9,49.7-270.1,49.7-983c0-641.7-6.5-782.1-38.9-933.3c-121-566.1-373.8-1034.9-771.3-1434.6c-248.5-250.6-453.7-397.5-767-550.9c-449.4-224.7-754-287.3-1464.8-304.6l-490.4-13l-989.5-1063l-987.3-1065.1l-6.5,1065.1l-4.3,1063l-254.9,15.1c-525,30.3-872.8,118.8-1274.7,326.3C1474.1-1325,942.6-625,756.8,241.3c-32.4,151.2-38.9,291.7-38.9,944.1c0,760.5,0,769.1,58.3,993.8c146.9,579,371.6,980.9,773.4,1382.7c449.4,451.5,993.8,725.9,1618.2,818.8c67,10.8,937.6,17.3,1935.8,15.1C6868.8,4391.6,6922.9,4389.4,7102.2,4346.2z"/><path d="M4673.8,3443.1c-417-86.4-821-302.5-1097.5-587.7l-99.4-103.7l267.9-317.6l270.1-319.7l166.4,142.6c280.9,239.8,507.7,341.4,816.7,367.3c367.3,30.2,684.9-71.3,779.9-248.5c64.8-125.3,69.1-306.8,4.3-410.5c-60.5-101.5-108-136.1-332.7-252.8C4872.5,1414.5,4704,1157.4,4704,576.2V407.7h300.3h300.3l15.1,79.9c47.5,254.9,194.5,401.8,617.9,622.2c453.7,233.3,643.8,451.5,723.8,827.5c38.9,188,38.9,356.5-2.1,555.2c-43.2,203.1-79.9,293.8-188,447.2c-151.2,216-417,382.4-758.3,475.3C5505.6,3471.2,4894.1,3488.5,4673.8,3443.1z"/><path d="M4872.5-227.5c-123.1-45.4-183.6-90.7-250.6-190.1c-49.7-77.8-58.3-112.4-58.3-246.3c0-138.3,6.5-166.3,64.8-250.6c190.1-267.9,566.1-267.9,756.2,0c58.3,84.3,64.8,112.4,64.8,252.8s-6.5,168.5-64.8,252.8C5265.8-242.7,5043.2-162.7,4872.5-227.5z"/>
    </g>
</svg>