<svg x="0px" y="0px" viewBox="0 0 1000 1000">
    <g transform="translate(0.000000,511.000000) scale(0.100000,-0.100000)"><path d="M433.9,4869.3c-58.8-26.7-138.9-82.8-179-125.5C102.7,4580.8,100,4551.4,100,3525.8c0-1041.7,5.3-1068.4,176.3-1228.7c165.6-154.9,176.3-154.9,1396.9-154.9H2795l341.9-440.7c187-240.4,349.9-438,360.6-440.7c10.7,0,173.6,197.6,360.6,440.7c288.5,368.6,355.2,440.7,430,456.7c125.5,24,288.5,154.9,352.6,275.1c50.7,101.5,53.4,154.9,53.4,1103.1c0,982.9-2.7,998.9-61.4,1103.1c-32.1,56.1-112.2,141.6-173.6,187l-117.5,80.1l-1899.1,5.4C634.2,4920,535.4,4917.4,433.9,4869.3z M4250.7,4433.9c37.4-50.8,42.7-184.3,42.7-902.8c0-956.2,0-961.6-187-961.6c-98.8,0-109.5-10.7-336.5-299.2c-128.2-165.6-240.4-312.5-251.1-323.2c-10.7-10.7-130.9,125.5-269.8,301.8L2998,2569.6H1796.1c-902.8,0-1212.6,8-1236.7,32.1c-45.4,45.4-45.4,1813.6,0,1859c24,24.1,470.1,32.1,1840.3,32.1h1810.9L4250.7,4433.9z"/><path d="M2175.4,4265.6c-58.8-18.7-133.5-64.1-171-98.8c-133.5-125.5-189.6-315.2-90.8-315.2c26.7,0,88.1-8,133.5-16c64.1-13.3,82.8-8,82.8,26.7c0,21.4,34.7,80.1,77.5,128.2c66.8,74.8,96.2,88.1,197.7,88.1c149.6,0,259.1-88.1,259.1-208.3c0-61.4-34.7-109.5-162.9-227c-187-173.6-237.7-256.4-237.7-392.6v-93.5H2397c128.2,0,133.5,2.7,133.5,77.5c0,58.8,42.7,120.2,197.6,272.4c232.4,232.4,269.8,328.5,187,510.2C2805.7,4257.6,2469.2,4372.5,2175.4,4265.6z"/><path d="M2263.5,2903.4v-146.9h146.9h146.9v146.9v146.9h-146.9h-146.9V2903.4z"/><path d="M6481,4238.9c-523.5-104.2-1001.6-448.7-1276.8-916.1C4654,2387.9,5006.6,1170,5973.5,662.5c774.6-406,1770.8-216.3,2331.8,440.7c454.1,531.5,584.9,1242,355.2,1901.7C8356,3886.4,7405.1,4423.2,6481,4238.9z M7202.2,3811.6c710.5-168.3,1204.6-849.4,1140.5-1578.6c-53.4-643.7-544.9-1199.3-1185.9-1332.8c-328.5-69.4-635.7-32.1-958.9,122.9c-243,114.8-552.9,422-670.4,665.1c-291.1,593-176.3,1276.7,288.5,1733.5C6176.5,3779.5,6708,3926.4,7202.2,3811.6z"/><path d="M4531.2,221.8c-261.7-29.4-446-184.3-590.3-502.1c-160.3-355.2-160.3-312.5,96.2-2411.9c125.5-1036.3,237.7-1909.8,243.1-1944.5l13.4-58.8l2572.2,5.4l2569.5,8l232.4,1883c128.2,1036.3,232.4,1936.5,232.4,2000.6c5.3,261.7-133.6,614.3-320.5,817.3c-211,229.7-10.7,213.7-2588.2,216.4C5735.8,237.8,4627.3,232.5,4531.2,221.8z M9242.8-235c104.2-82.8,211-331.2,221.7-520.8c8-98.8-69.4-806.6-197.6-1829.6l-205.7-1669.4l-2195.6-8c-2072.7-5.3-2195.5-2.7-2208.9,40.1c-5.3,26.7-104.2,817.3-219,1757.5L4229.3-755.8l58.8,192.3c40.1,128.2,88.1,224.3,149.6,285.8l88.1,96.1h2323.8C9143.9-181.5,9176-181.5,9242.8-235z"/></g>
</svg>