<svg width="140.99mm" height="140.99mm" version="1.1" viewBox="0 0 140.99 140.99" xmlns="http://www.w3.org/2000/svg">
 <g transform="translate(-14.363 -90.402)">
  <path transform="scale(.26458)" d="m241.17 341.68a186.88 186.88 0 0 0-186.88 186.88 186.88 186.88 0 0 0 186.88 186.88 186.88 186.88 0 0 0 102.39-30.721c0.32113 0.34952 0.6427 0.69934 0.9961 1.0527l177.6 177.6c14.91 14.91 38.917 14.91 53.826 0 14.91-14.91 14.91-38.917 0-53.826l-177.6-177.6c-0.33699-0.33699-0.67-0.64397-1.002-0.95312a186.88 186.88 0 0 0 30.67-102.43 186.88 186.88 0 0 0-186.88-186.88zm0 32.324a154.55 154.55 0 0 1 154.55 154.55 154.55 154.55 0 0 1-154.55 154.55 154.55 154.55 0 0 1-154.55-154.55 154.55 154.55 0 0 1 154.55-154.55z" style="stroke-width:1.2092"/>
 </g>
</svg>
