<svg x="0px" y="0px" viewBox="0 0 1000 1000">
    <path d="M923.2,278.4h-22.3v-44.5c0-37.9-29-66.8-66.8-66.8H508.9l-69-69c-13.4-13.4-29-20-46.8-20H165.9c-37.9,0-66.8,29-66.8,66.8v133.6H76.8c-37.9,0-66.8,29-66.8,66.8v2.2l66.8,510c0,35.6,31.2,64.6,66.8,64.6h712.7c35.6,0,66.8-29,66.8-64.6l66.8-510v-2.2C990,307.3,961,278.4,923.2,278.4L923.2,278.4z M143.6,144.7c0-13.4,8.9-22.3,22.3-22.3h227.2c6.7,0,11.1,2.2,15.6,6.7l75.7,75.7c4.5,4.5,8.9,6.7,15.6,6.7h334.1c13.4,0,22.3,8.9,22.3,22.3v44.5H143.6V144.7L143.6,144.7z M878.6,855.2v2.2c0,13.4-8.9,22.3-22.3,22.3H143.6c-13.4,0-22.3-8.9-22.3-22.3v-2.2L54.5,343c0-11.1,11.1-20,22.3-20h846.4c11.1,0,22.3,8.9,22.3,20L878.6,855.2L878.6,855.2z"/>
    <path d="M580.2,608c31.2-24.5,53.5-62.4,53.5-106.9c0-73.5-60.1-133.6-133.6-133.6c-73.5,0-133.6,60.1-133.6,133.6c0,42.3,20,82.4,53.5,106.9c-71.3,31.2-120.3,100.2-120.3,182.6c0,13.4,8.9,22.3,22.3,22.3s22.3-8.9,22.3-22.3c0-86.9,69-155.9,155.9-155.9c86.9,0,155.9,69,155.9,155.9c0,13.4,8.9,22.3,22.3,22.3c13.4,0,22.3-8.9,22.3-22.3C700.4,708.2,651.4,639.2,580.2,608L580.2,608z M500,412c49,0,89.1,40.1,89.1,89.1c0,49-40.1,89.1-89.1,89.1c-49,0-89.1-40.1-89.1-89.1C410.9,452.1,451,412,500,412z"/>
</svg>