<svg x="0px" y="0px" viewBox="0 0 1000 1000">
    <path d="M845.5,756.4V611.9h-89.1v144.5H611.9v89h144.5v144.5h89V845.4H990l-0.1-89H845.5z"/>
    <path d="M597.3,526.4c55.7-54.7,90.6-130.7,90.6-215C687.9,145,553,10.1,386.6,10.1C220.2,10.1,85.3,145,85.3,311.4c0,84.3,34.8,160.4,90.7,215C75.8,594,10,708.6,10,838.7c0,53.6,11.6,104.5,31.8,150.7h85.3c-25.8-44.6-41.8-95.5-41.8-150.7c0-140.2,96.3-257,226-290.7v-24.5c-87.6-31.2-150.7-113.9-150.7-212.1c0-124.8,101.2-226,226-226c124.8,0,226,101.2,226,226c0,98.2-63,181-150.7,212.1V548c45.9,11.9,87.2,34.5,122,64.7h103.4C662.2,579.2,632,549.9,597.3,526.4z"/>
</svg>