<svg x="0px" y="0px" viewBox="0 0 1000 1000">
    <path d="M918.4,775.5l-83.7,0.3l-0.3-86.3c0-23.4-17.5-42.4-40.6-42.4c-23.1,0-41.9,19-41.9,42.4l-0.1,86.6l-84.7,0.3c-23.1,0-41.9,17.6-41.9,41c0,23.4,18.8,42.4,41.9,42.4l84.6,0.1l-0.1,87.7c0,23.4,18.8,42.4,41.9,42.4c23.1,0,41.9-19,41.9-42.4l-0.3-87.5l83.4,0.1c23.1,0,41.9-19,41.9-42.4S941.6,775.5,918.4,775.5L918.4,775.5z M682.2,679.9c23.1,0,41.9-19,41.9-42.4l-0.4-3.9c0-17.3-10.3-32.2-25-38.8c-23.4-16.7-48.6-31-75.3-42.6c77.3-53.5,128-143.4,128-245.2c0-164-131.5-297-293.8-297c-162.3,0-293.8,133-293.8,297c0,101.9,50.7,191.8,128,245.3C159.5,609.9,62.5,734.2,42,883.3c-1.5,4.4-2.3,9.1-2.3,13.9l0.3,3.2c0,0.1,0,0.1,0,0.2h0l0,0.5c0,23.4,18.8,42.4,41.9,42.4c23.1,0,41.9-19,41.9-42.4l-0.1-0.5h0.8c19.5-161.7,151.7-288.3,314.7-297.2c6,0.4,12.1,0.6,18.2,0.6c6.1,0,12.2-0.2,18.3-0.6c64.4,3.5,123.9,25.3,173.6,60.4C657.2,673.6,669,679.9,682.2,679.9L682.2,679.9z M457.5,519.3c-115.9,0-209.9-95-209.9-212.2c0-117.2,94-212.2,209.9-212.2c115.9,0,209.9,95,209.9,212.2C667.3,424.3,573.4,519.3,457.5,519.3z"/>
</svg>