<svg x="0px" y="0px" viewBox="0 0 1000 1000">
    <path d="M346.9,10H10v336.9c0,67.6,54.8,122.5,122.5,122.5h336.9V132.5C469.4,64.8,414.5,10,346.9,10z M392.8,300.9v91.9h-245c-33.8,0-61.2-27.4-61.2-61.3c0-5.3,0-15.3,0-15.3V86.6h245c33.8,0,61.3,27.4,61.3,61.3C392.8,147.8,392.8,243.4,392.8,300.9z M867.5,530.6H530.6v336.9c0,67.7,54.8,122.5,122.5,122.5H990V653.1C990,585.5,935.1,530.6,867.5,530.6z M913.4,836.9v76.6h-245c-33.8,0-61.3-27.4-61.3-61.3c0,0,0-163.8,0-168.4v-76.6h245c33.8,0,61.3,27.4,61.3,61.3C913.4,673.7,913.4,836.9,913.4,836.9z M653.1,10c-67.7,0-122.5,54.8-122.5,122.5v336.9h336.9c67.7,0,122.5-54.9,122.5-122.5V10H653.1L653.1,10z M913.4,193.8c0,0,0,132.5,0,137.8c0,33.8-27.4,61.3-61.3,61.3h-245v-91.9c0-57.6,0-153.1,0-153.1c0-33.8,27.4-61.3,61.3-61.3h245V193.8L913.4,193.8z M10,653.1V990h336.9c67.7,0,122.5-54.8,122.5-122.5V530.6H132.5C64.8,530.6,10,585.5,10,653.1L10,653.1z M392.8,607.2c0,0,0,86.4,0,91.9c0,57.6,0,153.1,0,153.1c0,33.8-27.4,61.3-61.3,61.3h-245v-76.6c0,0,0-163.1,0-168.4c0-33.8,27.4-61.3,61.2-61.3H392.8L392.8,607.2z"/>
</svg>