<svg id="Layer_1" data-name="Layer 1" xmlns="http://www.w3.org/2000/svg" viewBox="0 0 54.58 61.46">
    <defs>
        <style>.cls-1{fill:#0b344d;}</style>
    </defs>
    <title>sangha_logo</title>
    <path class="cls-1" d="M39,6.73c0,.31,0,.39,0,0Z" transform="translate(-8.14 -4.7)"/>
    <path class="cls-1" d="M51.91,52.31c-.11.29-.2.31-.18-.16A1.45,1.45,0,0,0,51.91,52.31Z" transform="translate(-8.14 -4.7)"/>
    <path class="cls-1" d="M62.73,61.78c-.23,1.38-2.88,2.43-2.88,2.43H48a46.72,46.72,0,0,1-12.6,2h0a46.89,46.89,0,0,1-12.59-1.94H11s-2.65-1-2.88-2.43c.42-1.45,3.3-1.38,3.3-1.38v-.52a7.24,7.24,0,0,1-1-2.74,4.18,4.18,0,0,1,.92-2.08.73.73,0,0,1,.6-.31h.45a.78.78,0,0,0,.31-.06,7.36,7.36,0,0,0,3.25-3.11H16a10.76,10.76,0,0,0,5.12-1.5c.1.24.17.26.17-.15l-.17.15a11.81,11.81,0,0,1-.62-2.88,9.65,9.65,0,0,1,1.27-3.52c0,.75.34-4.45.34-4.45a2.89,2.89,0,0,1-.64-1.45,3.1,3.1,0,0,1,.64-1.49s1.15-7.48,3.21-7.78a1.7,1.7,0,0,0,1.84-.88A1.38,1.38,0,0,1,28.36,27h1a.57.57,0,0,0,.5-.29,3.09,3.09,0,0,1,.85-1.06c.54.18,2.21-1.34,1.31-2.05a.86.86,0,0,0-.86-.19s0,1.87-.85,1.87-.94-2.06-.94-2.06V21.82s-.3-.56-.63-1.31a16.57,16.57,0,0,1-.89-2.38.6.6,0,0,1,.35-.71,2.16,2.16,0,0,0,.15-.66,10,10,0,0,1,.23-2.28,7.8,7.8,0,0,1,3.72-3.93c0,.27,0,.34,0,0h0c0-.56-.05-1.92-.05-1.92a3.61,3.61,0,0,1,1.91-1.05,7.48,7.48,0,0,1,.18-1.45c.16-.71.48-1.42,1.08-1.42h0c.6,0,.92.71,1.1,1.42a8.62,8.62,0,0,1,.18,1.45,3.65,3.65,0,0,1,1.91,1s0,1.37-.06,1.92h0c0,.35,0,.28,0,0a7.77,7.77,0,0,1,3.72,3.94,10.85,10.85,0,0,1,.24,2.27c0,.37.09.65.15.67a.6.6,0,0,1,.33.7,14.09,14.09,0,0,1-.88,2.38c-.33.75-.62,1.32-.62,1.32v1.35s-.08,2-.94,2-.86-1.87-.86-1.87a.87.87,0,0,0-.87.19c-.88.71.77,2.24,1.31,2.05A3.13,3.13,0,0,1,41,26.65a.55.55,0,0,0,.49.29h1a1.43,1.43,0,0,1,1.19.69,1.67,1.67,0,0,0,1.83.88c2,.3,3.22,7.78,3.22,7.78a3.13,3.13,0,0,1,.63,1.49,2.92,2.92,0,0,1-.63,1.46s.33,5.2.33,4.44a9.64,9.64,0,0,1,1.27,3.53,11.85,11.85,0,0,1-.62,2.86,1.22,1.22,0,0,1-.16-.14c0,.41.06.39.16.14a10.5,10.5,0,0,0,5.12,1.51H55a7.31,7.31,0,0,0,3.25,3.11.8.8,0,0,0,.3.06H59a.78.78,0,0,1,.61.31,4.17,4.17,0,0,1,.91,2.08,7.28,7.28,0,0,1-1,2.74v.52S62.32,60.33,62.73,61.78Z" transform="translate(-8.14 -4.7)"/>
    <path class="cls-1" d="M19.14,52.16c0,.47-.07.45-.19.17A1.72,1.72,0,0,0,19.14,52.16Z" transform="translate(-8.14 -4.7)"/>
    <path class="cls-1" d="M31.86,6.73c0,.4,0,.32,0,0Z" transform="translate(-8.14 -4.7)"/>
</svg>