<?xml version="1.0" encoding="utf-8"?>
<!-- Svg Vector Icons : http://www.onlinewebfonts.com/icon -->
<!DOCTYPE svg PUBLIC "-//W3C//DTD SVG 1.1//EN" "http://www.w3.org/Graphics/SVG/1.1/DTD/svg11.dtd">
<svg version="1.1" xmlns="http://www.w3.org/2000/svg" xmlns:xlink="http://www.w3.org/1999/xlink" x="0px" y="0px" viewBox="0 0 1000 1000" enable-background="new 0 0 1000 1000" xml:space="preserve">
<metadata> Svg Vector Icons : http://www.onlinewebfonts.com/icon </metadata>
<g><path d="M500,990C229.4,990,10,770.6,10,500S229.4,10,500,10s490,219.4,490,490S770.6,990,500,990z M500,52.6C252.9,52.6,52.6,252.9,52.6,500c0,119.4,47,227.5,123.2,307.8c-6.9-22.8-11.5-72.6,68.5-94.7l170.4-63.9v-42.6c0,0-55.6-19.3-85.2-106.5l-21.3-191.7c0,0,29.7-127.8,191.7-127.8c158.1,0,187.1,127.8,187.1,127.8L666.3,500c-28.9,87.3-82.6,106.5-82.6,106.5l-0.5,42.6L749.4,713c102.8,29.2,62.4,106.5,62.4,106.5s-0.2,0.6-0.4,1.3c83.8-81.3,136-194.9,136-320.9C947.4,252.9,747.1,52.6,500,52.6z"/></g>
</svg>