<?xml version="1.0" encoding="utf-8"?>
<!-- Svg Vector Icons : http://www.onlinewebfonts.com/icon -->
<!DOCTYPE svg PUBLIC "-//W3C//DTD SVG 1.1//EN" "http://www.w3.org/Graphics/SVG/1.1/DTD/svg11.dtd">
<svg version="1.1" xmlns="http://www.w3.org/2000/svg" xmlns:xlink="http://www.w3.org/1999/xlink" x="0px" y="0px" viewBox="0 0 1000 1000" enable-background="new 0 0 1000 1000" xml:space="preserve">
<metadata> Svg Vector Icons : http://www.onlinewebfonts.com/icon </metadata>
<g><g transform="translate(0.000000,56.000000) scale(0.100000,-0.100000)"><path d="M159.2,202.3C106.6,79.4,89-2096.9,106.6-4659.4l52.6-4651h4826.6h4826.5l52.6,4107L9900-1079l-737.2,754.7l-737,754.7H4336.3C1194.7,430.4,211.8,377.8,159.2,202.3z M7442.8-1500.2v-1579.6H5073.5H2704.1v1579.6V79.4h2369.4h2369.3V-1500.2z M8320.4-6853.3v-2193.9H4985.8H1651.1v2193.9v2193.9h3334.7h3334.6V-6853.3z"/><path d="M5161.3-1412.4v-965.3h614.2h614.3v965.3v965.3h-614.3h-614.2V-1412.4z"/><path d="M3809.8-5835.4c649.4-35.1,1702.4-35.1,2369.3,0c649.4,35.1,105.4,52.6-1193.3,52.6C3687-5782.7,3142.9-5800.2,3809.8-5835.4z"/><path d="M3809.8-6361.9c649.4-35.1,1702.4-35.1,2369.3,0c649.4,35.1,105.4,52.6-1193.3,52.6C3687-6309.3,3142.9-6326.7,3809.8-6361.9z"/><path d="M3809.8-6888.4c649.4-35.1,1702.4-35.1,2369.3,0c649.4,35.1,105.4,52.6-1193.3,52.6C3687-6835.8,3142.9-6853.3,3809.8-6888.4z"/><path d="M3809.8-7414.9c649.4-35.1,1702.4-35.1,2369.3,0c649.4,35.1,105.4,52.6-1193.3,52.6C3687-7362.3,3142.9-7379.8,3809.8-7414.9z"/><path d="M3809.8-7941.5c649.4-35.1,1702.4-35.1,2369.3,0c649.4,35.1,105.4,52.6-1193.3,52.6C3687-7888.9,3142.9-7906.3,3809.8-7941.5z"/></g></g>
</svg>