<svg x="0px" y="0px" viewBox="0 0 1000 1000">
    <path d="M846.9,508.1c10.8-24.9,16.7-52.4,16.7-81.2C863.7,313.7,772.1,222,659,222c-36.5,0-70.7,9.6-100.4,26.3c-43.9-52-109.5-85.1-182.8-85.1c-132,0-239.1,107.1-239.1,239.3c0,10.6,0.7,21,2,31.2C63.2,465.3,10,540.1,10,627.2c0,115.7,93.8,209.6,209.4,209.6h605.7c91.1,0,164.9-73.9,164.9-165.1C990,588,927.7,518.8,846.9,508.1z M626.5,573.1c-12.7,0-75.2,0.2-75.2,0.2v123.5c0,16.7-13.5,30.2-30.2,30.2h-59.8c-16.7,0-30.2-13.5-30.2-30.2V573.3c0,0-62.5-0.2-75.2-0.2c-15.7,0-35.8-22.1-11.8-52.1l126.5-154.5c5.7-6.9,13.1-10.5,20.5-10.7c7.5,0.2,14.8,3.8,20.5,10.7L638.3,521C662.3,551,642.1,573.1,626.5,573.1z"/>
</svg>