<svg x="0px" y="0px" viewBox="0 0 1000 1000">
    <g transform="translate(0.000000,511.000000) scale(0.100000,-0.100000)">
        <path d="M4397.1,3157.6c-1623.7-168.1-2976-980-3900.8-2339.5C316.2,553.9,100,167.2,100,109.6c0-50.5,182.5-379.5,353.1-636.5c886.3-1330.7,2147.4-2144.9,3691.8-2382.7c381.9-57.7,1203.4-57.7,1585.3,0c1580.5,242.6,2887.1,1083.3,3816.7,2454.8c88.8,132.1,196.9,302.6,240.2,379.5c43.2,74.4,86.5,136.9,96.1,136.9c9.6,0,16.8,21.6,16.8,48c0,26.4-9.6,48-19.2,48c-9.6,0-62.4,79.3-117.7,175.3c-146.6,249.8-384.3,590.9-593.3,840.7C8273.9,2249.7,7099.3,2919.9,5754.2,3124C5449.1,3169.7,4692.5,3188.9,4397.1,3157.6z M5509.2,1985.5c312.2-91.3,583.7-247.4,831.1-480.4c811.8-771,816.7-2053.7,9.6-2827.1c-797.4-766.2-2029.6-742.2-2783.9,52.8c-235.4,249.8-389.1,518.8-482.8,843.1c-76.9,269-76.9,754.2,0,1023.2c216.2,754.2,814.3,1287.5,1614.1,1443.6C4841.5,2067.2,5336.3,2033.5,5509.2,1985.5z"/><path d="M4716.6,1274.5c-480.4-122.5-840.7-514-915.1-994.4C3734.2-159.5,3947.9-635,4325-887.3c218.6-144.1,369.9-187.3,660.5-187.3c209,0,278.6,9.6,396.3,55.2c264.2,103.3,456.4,252.2,595.7,463.6c511.6,778.3-4.8,1806.3-931.9,1854.3C4923.1,1305.7,4803,1296.1,4716.6,1274.5z"/>
    </g>
</svg>